<?xml version="1.0" encoding="UTF-8" standalone="no"?>
<!-- Created with Inkscape (http://www.inkscape.org/) -->

<svg
   xmlns:dc="http://purl.org/dc/elements/1.1/"
   xmlns:cc="http://creativecommons.org/ns#"
   xmlns:rdf="http://www.w3.org/1999/02/22-rdf-syntax-ns#"
   xmlns:svg="http://www.w3.org/2000/svg"
   xmlns="http://www.w3.org/2000/svg"
   xmlns:sodipodi="http://sodipodi.sourceforge.net/DTD/sodipodi-0.dtd"
   xmlns:inkscape="http://www.inkscape.org/namespaces/inkscape"
   width="420mm"
   height="594mm"
   viewBox="0 0 420 594"
   version="1.1"
   id="svg8"
   inkscape:version="0.92.4 (5da689c313, 2019-01-14)"
   sodipodi:docname="track_small.svg"
   inkscape:export-filename="D:\rdekimpe\Downloads\track_small.png"
   inkscape:export-xdpi="96"
   inkscape:export-ydpi="96">
  <defs
     id="defs2" />
  <sodipodi:namedview
     id="base"
     pagecolor="#ffffff"
     bordercolor="#666666"
     borderopacity="1.0"
     inkscape:pageopacity="0.0"
     inkscape:pageshadow="2"
     inkscape:zoom="0.32329491"
     inkscape:cx="793.70079"
     inkscape:cy="1311.4961"
     inkscape:document-units="mm"
     inkscape:current-layer="layer1"
     showgrid="false"
     inkscape:window-width="1920"
     inkscape:window-height="1017"
     inkscape:window-x="-8"
     inkscape:window-y="-8"
     inkscape:window-maximized="1" />
  <metadata
     id="metadata5">
    <rdf:RDF>
      <cc:Work
         rdf:about="">
        <dc:format>image/svg+xml</dc:format>
        <dc:type
           rdf:resource="http://purl.org/dc/dcmitype/StillImage" />
        <dc:title></dc:title>
      </cc:Work>
    </rdf:RDF>
  </metadata>
  <g
     inkscape:label="Layer 1"
     inkscape:groupmode="layer"
     id="layer1"
     transform="translate(0,297)">
    <path
       style="fill:none;stroke:#000000;stroke-width:20;stroke-linecap:butt;stroke-linejoin:round;stroke-miterlimit:4;stroke-dasharray:none;stroke-opacity:1"
       d="m 33.51977,-121.8214 c 0,0 -11.187798,-122.26665 80.71198,-123.86491 124.66404,-3.99564 169.41521,-38.35816 214.16641,-5.5939 0,0 77.51547,57.53725 57.53725,120.6684 -26.37123,54.340709 -78.31458,46.349421 -127.86054,46.349421 -75.11807,3.196506 -81.51111,27.17037 -97.49368,90.3015098 -9.05824,58.3206422 29.56775,67.9259262 29.56775,67.9259262 0,0 46.34946,19.97822 76.71633,3.196529 35.96078,-20.777334 23.97387,-47.148589 58.33639,-61.532912 50.34509,-13.5851873 60.73375,28.768623 60.73375,28.768623 10.38868,43.152945 -8.79041,131.856223 -8.79041,131.856223 -17.58082,63.93028 -164.62047,85.50673 -164.62047,85.50673 0,0 -154.231776,28.76864 -160.624804,-70.32329 z"
       id="path4518"
       inkscape:connector-curvature="0"
       sodipodi:nodetypes="cccccccccccccc" />
  </g>
</svg>
